<?xml version="1.0" encoding="UTF-8"?>
<svg id="Layer_2" xmlns="http://www.w3.org/2000/svg" viewBox="0 0 421.59 97.29">
  <defs>
    <style>
      .cls-1 {
        fill: #fff;
      }
    </style>
  </defs>
  <g id="Main">
    <g>
      <g>
        <path class="cls-1" d="M146.88,68.2h-8.69v-35.21h-13.03v-3.92h34.75v3.92h-13.03v35.21Z"/>
        <path class="cls-1" d="M182.91,68.87c-4.07,0-7.42-.53-10.04-1.59-2.62-1.06-4.57-2.61-5.84-4.65-1.27-2.04-1.9-4.49-1.9-7.37v-26.17h8.62v26.17c0,3.15.83,5.48,2.48,7.01,1.65,1.53,4.29,2.29,7.91,2.29s6.23-.76,7.84-2.29c1.61-1.53,2.41-3.86,2.41-7.01v-26.17h4.48v26.17c0,4.3-1.3,7.64-3.9,10.03-2.6,2.39-6.62,3.59-12.05,3.59Z"/>
        <path class="cls-1" d="M225.74,68.2h-8.69v-35.21h-13.03v-3.92h34.75v3.92h-13.03v35.21Z"/>
        <path class="cls-1" d="M271.21,68.2h-27.21V29.08h27.21v3.92h-18.59v13.55h17.1v3.99h-17.1v13.75h18.59v3.92Z"/>
        <path class="cls-1" d="M304.12,68.2h-25.72V29.08h8.55v35.21h17.17v3.92Z"/>
        <path class="cls-1" d="M312.06,68.2h-4.82l14.25-39.13h8.96l14.39,39.13h-9.98l-12.01-35.87,2.44-.07-13.23,35.94ZM335.61,59.1h-22.12v-3.92h22.12v3.92Z"/>
        <path class="cls-1" d="M367.57,68.87c-2.04,0-4.16-.3-6.38-.9-2.22-.6-4.27-1.64-6.18-3.12-1.9-1.48-3.45-3.54-4.65-6.18-1.2-2.63-1.8-5.97-1.8-10s.63-7.42,1.9-10.03c1.27-2.61,2.93-4.67,4.99-6.18,2.06-1.5,4.26-2.56,6.62-3.16,2.35-.6,4.61-.9,6.79-.9,3.66,0,6.79.48,9.37,1.43,2.58.95,4.54,2.25,5.87,3.89,1.33,1.64,2,3.48,2,5.51,0,.27-.01.54-.03.83-.02.29-.06.57-.1.83h-9.3c.04-.27.08-.53.1-.8.02-.27.03-.51.03-.73,0-2.35-.76-4.14-2.27-5.38-1.52-1.24-3.4-1.86-5.67-1.86-2.13,0-4.04.58-5.73,1.73-1.7,1.15-3.03,2.93-4,5.35-.97,2.41-1.46,5.53-1.46,9.33s.49,6.82,1.46,9.17c.97,2.35,2.3,4.06,3.97,5.15,1.67,1.09,3.57,1.63,5.7,1.63,2.94,0,5.08-.9,6.41-2.69,1.33-1.79,2-4.15,2-7.08l3.53.33c-.05,4.7-1.31,8.17-3.8,10.43-2.49,2.26-5.61,3.39-9.37,3.39ZM385.83,68.2h-4.48l-4.14-5.85v-9.7h-6.79v-3.92h15.41v19.46Z"/>
        <path class="cls-1" d="M421.59,68.2h-27.21V29.08h27.21v3.92h-18.59v13.55h17.1v3.99h-17.1v13.75h18.59v3.92Z"/>
      </g>
      <g>
        <path class="cls-1" d="M76.86,0H5.1C2.29,0,0,2.29,0,5.11v43.53c0,32.44,33.15,48.65,40.98,48.65s40.99-16.21,40.99-48.65V5.11c0-2.83-2.3-5.11-5.11-5.11ZM15.51,75.78c0,.35-.44.52-.68.25-5.37-6.37-9.56-14.53-10.26-24.5-.02-.35.27-.65.62-.65h9.68c.35,0,.63.29.63.64v24.26ZM30.98,88.27c0,.4-.41.65-.75.46-3.11-1.76-6.53-4.1-9.81-7-.27-.24-.43-.6-.43-.97v-33.72c0-.35-.29-.63-.65-.63H5.1c-.35,0-.63-.29-.63-.63v-9.73c0-.35.29-.64.63-.64h25.24c.35,0,.63.29.63.64v52.23ZM67.08,76.1c-.24.27-.68.1-.68-.25v-24.32c0-.35.29-.64.63-.64h9.73c.35,0,.63.3.62.65-.7,10-4.92,18.18-10.3,24.56ZM77.49,45.77c0,.35-.29.63-.63.63h-14.31c-.35,0-.63.29-.63.63v33.77c0,.37-.16.73-.43.97-3.3,2.89-6.7,5.22-9.81,6.99-.33.19-.76-.06-.76-.44v-52.28c0-.35.29-.64.65-.64h25.29c.35,0,.63.29.63.64v9.73ZM77.49,30.29c0,.37-.29.65-.63.65h-29.88c-.33,0-.67.13-.9.37l-4.67,4.67-.46.46.41.41,4.72,4.7c.24.24.38.57.38.9v48.01c0,.52-.32,1-.81,1.19-2.03.78-3.67,1.16-4.67,1.16s-2.65-.4-4.72-1.19c-.49-.17-.81-.65-.81-1.18v-48c0-.33.13-.67.38-.9l4.67-4.67.44-.44-.44-.46-4.67-4.67c-.25-.24-.57-.37-.91-.37H5.1c-.35,0-.63-.29-.63-.65v-9.72c0-.35.29-.63.63-.63h71.76c.35,0,.63.29.63.63v9.72ZM77.49,14.83c0,.35-.29.63-.63.63H5.1c-.35,0-.63-.29-.63-.63V5.11c0-.37.29-.65.63-.65h29.86c.33,0,.65.14.9.38l4.67,4.67c.24.25.65.25.89,0l4.67-4.67c.25-.24.57-.38.9-.38h29.86c.35,0,.63.29.63.65v9.72Z"/>
        <path class="cls-1" d="M41.4,35.97l-.46.46-.44-.46c.25.25.65.25.91,0Z"/>
        <path class="cls-1" d="M41.35,36.84c-.25-.22-.62-.21-.86.03l.44-.44.41.41Z"/>
      </g>
    </g>
  </g>
</svg>