<?xml version="1.0" encoding="UTF-8"?>
<svg id="Layer_2" xmlns="http://www.w3.org/2000/svg" viewBox="0 0 422.22 97.76">
  <defs>
    <style>
      .cls-1 {
        fill: #ffbe18;
      }
    </style>
  </defs>
  <g id="Main">
    <g>
      <g>
        <path d="M147.48,68.7h-8.69v-35.21h-13.03v-3.92h34.75v3.92h-13.03v35.21Z"/>
        <path d="M183.52,69.36c-4.07,0-7.42-.53-10.04-1.59-2.62-1.06-4.57-2.61-5.84-4.65-1.27-2.04-1.9-4.49-1.9-7.37v-26.18h8.62v26.18c0,3.15.83,5.48,2.48,7.01,1.65,1.53,4.29,2.29,7.91,2.29s6.23-.76,7.84-2.29c1.61-1.53,2.41-3.86,2.41-7.01v-26.18h4.48v26.18c0,4.3-1.3,7.64-3.9,10.03-2.6,2.39-6.62,3.59-12.05,3.59Z"/>
        <path d="M226.35,68.7h-8.69v-35.21h-13.03v-3.92h34.75v3.92h-13.03v35.21Z"/>
        <path d="M271.82,68.7h-27.22V29.57h27.22v3.92h-18.6v13.55h17.1v3.99h-17.1v13.75h18.6v3.92Z"/>
        <path d="M304.74,68.7h-25.72V29.57h8.55v35.21h17.17v3.92Z"/>
        <path d="M312.68,68.7h-4.82l14.25-39.13h8.96l14.39,39.13h-9.98l-12.01-35.88,2.44-.07-13.23,35.94ZM336.23,59.6h-22.13v-3.92h22.13v3.92Z"/>
        <path d="M368.19,69.36c-2.04,0-4.16-.3-6.38-.9-2.22-.6-4.28-1.64-6.18-3.12-1.9-1.48-3.45-3.54-4.65-6.18-1.2-2.63-1.8-5.97-1.8-10s.63-7.42,1.9-10.03c1.27-2.61,2.93-4.67,4.99-6.18,2.06-1.51,4.26-2.56,6.62-3.16,2.35-.6,4.62-.9,6.79-.9,3.66,0,6.79.48,9.37,1.43,2.58.95,4.54,2.25,5.87,3.89,1.33,1.64,2,3.48,2,5.51,0,.27-.01.54-.03.83-.02.29-.06.57-.1.83h-9.3c.04-.27.08-.53.1-.8.02-.27.03-.51.03-.73,0-2.35-.76-4.14-2.27-5.38-1.52-1.24-3.4-1.86-5.67-1.86-2.13,0-4.04.58-5.74,1.73-1.7,1.15-3.03,2.93-4,5.35-.97,2.41-1.46,5.53-1.46,9.33s.49,6.82,1.46,9.17c.97,2.35,2.3,4.06,3.97,5.15,1.67,1.09,3.57,1.63,5.7,1.63,2.94,0,5.08-.9,6.41-2.69,1.33-1.79,2-4.15,2-7.08l3.53.33c-.05,4.7-1.31,8.17-3.8,10.43-2.49,2.26-5.61,3.39-9.37,3.39ZM386.45,68.7h-4.48l-4.14-5.85v-9.7h-6.79v-3.92h15.41v19.47Z"/>
        <path d="M422.22,68.7h-27.22V29.57h27.22v3.92h-18.6v13.55h17.1v3.99h-17.1v13.75h18.6v3.92Z"/>
      </g>
      <g>
        <g>
          <path class="cls-1" d="M42,97.76C31.55,97.76,0,80.42,0,48.88V9.75C0,4.37,4.37,0,9.75,0h64.49c5.38,0,9.75,4.37,9.75,9.75v39.12c0,31.55-31.54,48.88-42,48.88Z"/>
          <path class="cls-1" d="M78.84,9.75v39.12c0,29.15-29.81,43.72-36.84,43.72S5.16,78.02,5.16,48.88V9.75c0-2.54,2.06-4.59,4.59-4.59h64.49c2.52,0,4.59,2.06,4.59,4.59Z"/>
        </g>
        <g>
          <path d="M74.8,4.41H9.2c-2.58,0-4.67,2.09-4.67,4.67v39.8c0,29.65,30.32,44.48,37.48,44.48s37.47-14.83,37.47-44.48V9.08c0-2.58-2.11-4.67-4.67-4.67ZM18.72,73.69c0,.31-.42.47-.64.23-4.9-5.83-8.73-13.28-9.38-22.4,0-.31.25-.59.58-.59h8.86c.32,0,.58.26.58.58v22.19ZM32.84,85.12c0,.35-.37.59-.67.42-2.84-1.62-5.98-3.74-8.98-6.41-.25-.21-.38-.55-.38-.88v-30.83c0-.31-.26-.58-.6-.58h-13.02c-.33,0-.58-.26-.58-.58v-8.91c0-.31.25-.58.58-.58h23.07c.31,0,.58.26.58.58v47.77ZM65.86,73.97c-.22.24-.62.09-.62-.23v-22.24c0-.31.26-.58.58-.58h8.9c.32,0,.58.28.56.59-.63,9.13-4.5,16.62-9.41,22.45ZM75.38,46.26c0,.32-.26.58-.58.58h-13.07c-.32,0-.59.26-.59.58v30.86c0,.33-.16.67-.4.9-3,2.63-6.12,4.78-8.96,6.38-.31.18-.7-.05-.7-.41v-47.8c0-.31.26-.58.59-.58h23.12c.31,0,.58.26.58.58v8.91ZM75.38,32.1c0,.33-.26.59-.58.59h-27.32c-.3,0-.59.12-.82.33l-4.27,4.28s-.03.03-.04.04l-.38.38h0s.38.39.38.39l4.3,4.29c.23.23.35.52.35.82v43.9c0,.48-.3.92-.74,1.09-1.85.7-3.35,1.05-4.26,1.05s-2.43-.37-4.3-1.08c-.46-.16-.76-.59-.76-1.08v-43.88c0-.3.12-.59.35-.82l4.28-4.27.39-.4-.39-.42h0s-4.27-4.28-4.27-4.28c-.23-.21-.52-.33-.82-.33H9.2c-.33,0-.58-.26-.58-.59v-8.87c0-.33.25-.58.58-.58h65.6c.31,0,.58.24.58.58v8.87ZM75.38,17.98c0,.31-.26.58-.58.58H9.2c-.33,0-.58-.26-.58-.58v-8.9c0-.33.25-.59.58-.59h27.3c.3,0,.59.12.82.35l4.27,4.27c.21.23.6.23.81,0l4.27-4.27c.23-.23.52-.35.82-.35h27.3c.31,0,.58.26.58.59v8.9Z"/>
          <path class="cls-1" d="M18.72,51.51v22.19c0,.31-.42.47-.64.23-4.9-5.83-8.73-13.28-9.38-22.4,0-.31.25-.59.58-.59h8.86c.32,0,.58.26.58.58Z"/>
          <path class="cls-1" d="M75.27,51.53c-.63,9.13-4.5,16.62-9.41,22.45-.22.24-.62.09-.62-.23v-22.24c0-.31.26-.58.58-.58h8.9c.32,0,.58.28.56.59Z"/>
          <path class="cls-1" d="M32.84,37.35v47.77c0,.35-.37.59-.67.42-2.84-1.62-5.98-3.74-8.98-6.41-.25-.21-.38-.55-.38-.88v-30.83c0-.31-.26-.58-.6-.58h-13.02c-.33,0-.58-.26-.58-.58v-8.91c0-.31.25-.58.58-.58h23.07c.31,0,.58.26.58.58Z"/>
          <path class="cls-1" d="M75.38,9.08v8.9c0,.31-.26.58-.58.58H9.2c-.33,0-.58-.26-.58-.58v-8.9c0-.33.25-.59.58-.59h27.3c.3,0,.59.12.82.35l4.27,4.27c.21.23.6.23.81,0l4.27-4.27c.23-.23.52-.35.82-.35h27.3c.31,0,.58.26.58.59Z"/>
          <path class="cls-1" d="M75.38,23.23v8.87c0,.33-.26.59-.58.59h-27.32c-.3,0-.59.12-.82.33l-4.27,4.28s-.03.03-.04.04c-.23.19-.57.17-.78-.04h0s-4.27-4.28-4.27-4.28c-.23-.21-.52-.33-.82-.33H9.2c-.33,0-.58-.26-.58-.59v-8.87c0-.33.25-.58.58-.58h65.6c.31,0,.58.24.58.58Z"/>
          <path class="cls-1" d="M47.01,43.22v43.9c0,.48-.3.92-.74,1.09-1.85.7-3.35,1.05-4.26,1.05s-2.43-.37-4.3-1.08c-.46-.16-.76-.59-.76-1.08v-43.88c0-.3.12-.59.35-.82l4.28-4.27s.06-.05.09-.08c.21-.14.49-.12.69.05h0s4.3,4.3,4.3,4.3c.23.23.35.52.35.82Z"/>
          <path class="cls-1" d="M75.38,37.35v8.91c0,.32-.26.58-.58.58h-13.07c-.32,0-.59.26-.59.58v30.86c0,.33-.16.67-.4.9-3,2.63-6.12,4.78-8.96,6.38-.31.18-.7-.05-.7-.41v-47.8c0-.31.26-.58.59-.58h23.12c.31,0,.58.26.58.58Z"/>
          <path d="M41.97,37.72h0s-.4-.42-.4-.42c.21.21.55.23.78.04.02,0,.03-.02.04-.04l-.42.42Z"/>
          <path d="M42.34,38.1c-.2-.17-.48-.19-.69-.05l.32-.32.38.38Z"/>
        </g>
      </g>
    </g>
  </g>
</svg>